# xmcd CD database file
#
# Track frame offsets:
#	150
#	11437
#	30792
#	59678
#	94689
#	123930
#	140210
#	165734
#	182107
#	191567
#
# Disc length: 2787 seconds
#
# Revision: 1
# Processed by: cddbd v1.5PL3 Copyright (c) Steve Scherf et al.
# Submitted via: CDex 1.50beta10
#
DISCID=820ae10a
DTITLE=Blur - Secret Gig
DYEAR=1999
DGENRE=Rock
TTITLE0=b.l.u.r.e.m.i
TTITLE1=No Distance Left To Run
TTITLE2=Tender
TTITLE3=Battle
TTITLE4=Beetlebum
TTITLE5=Bugman
TTITLE6=Trimm Trabb
TTITLE7=Mellow Song
TTITLE8=Song 2
TTITLE9=Tender*
EXTD=YEAR: 1999
EXTT0=
EXTT1=
EXTT2=
EXTT3=
EXTT4=
EXTT5=
EXTT6=
EXTT7=
EXTT8=
EXTT9=
PLAYORDER=
